#N canvas 867 65 309 223 10;
#X obj 104 74 sawtest~ 220;
#X obj 96 149 dac~;
#X obj 104 113 *~ 0.125;
#X msg 196 122 \; pd dsp 1;
#X floatatom 104 50 5 0 0 0 - - -, f 5;
#X connect 0 0 2 0;
#X connect 2 0 1 0;
#X connect 2 0 1 1;
#X connect 4 0 0 0;
